# xmcd CD database file
#
# Track frame offsets:
#	150
#	22005
#	43842
#	61195
#
# Disc length: 1050 seconds
#
# Revision: 0
# Processed by: cddbd v1.5.1PL2 Copyright (c) Steve Scherf et al.
# Submitted via: CDex 1.51
#
DISCID=2f041804
DTITLE=川島英五 - ほろ酔いで〜沢の鶴本醸造「辛口」ＣＭイメージソング〜
DYEAR=1992
DGENRE=J-POP
TTITLE0=ほろ酔いで
TTITLE1=ほろ酔いで（オリジナル・カラオケ）
TTITLE2=旅的途上
TTITLE3=旅的途上（オリジナル・カラオケ）
EXTD=YEAR: 1992
EXTT0=
EXTT1=
EXTT2=
EXTT3=
PLAYORDER=
